<?xml version="1.0" encoding="UTF-8" standalone="no"?>
<!DOCTYPE svg PUBLIC "-//W3C//DTD SVG 1.1//EN"
 "http://www.w3.org/Graphics/SVG/1.1/DTD/svg11.dtd">
<!-- Generated by graphviz version 12.1.2 (20240928.0832)
 -->
<!-- Pages: 1 -->
<svg width="1550pt" height="975pt"
 viewBox="0.00 0.00 1549.90 975.19" xmlns="http://www.w3.org/2000/svg" xmlns:xlink="http://www.w3.org/1999/xlink">
<g id="graph0" class="graph" transform="scale(1 1) rotate(0) translate(4 971.19)">
<polygon fill="white" stroke="none" points="-4,4 -4,-971.19 1545.9,-971.19 1545.9,4 -4,4"/>
<!-- @@endnode -->
<g id="node1" class="node">
<title>@@endnode</title>
<ellipse fill="#ffffff" stroke="black" cx="772" cy="-39.64" rx="35.64" ry="35.64"/>
<ellipse fill="none" stroke="black" cx="772" cy="-39.64" rx="39.64" ry="39.64"/>
<text text-anchor="start" x="762.25" y="-27.62" font-family="Times New Roman,serif" font-size="32.00">■</text>
</g>
<!-- @@startnode -->
<g id="node2" class="node">
<title>@@startnode</title>
<ellipse fill="#ffffff" stroke="black" cx="193" cy="-934.49" rx="32.7" ry="32.7"/>
<text text-anchor="start" x="182.88" y="-921.31" font-family="Times New Roman,serif" font-size="34.00">●</text>
</g>
<!-- CreateFine -->
<g id="node6" class="node">
<title>CreateFine</title>
<polygon fill="#ffffff" stroke="black" points="251.63,-851.54 134.37,-851.54 134.37,-815.54 251.63,-815.54 251.63,-851.54"/>
<text text-anchor="middle" x="193" y="-829.26" font-family="Times New Roman,serif" font-size="12.00">Create Fine (56482)</text>
</g>
<!-- @@startnode&#45;&gt;CreateFine -->
<g id="edge6" class="edge">
<title>@@startnode&#45;&gt;CreateFine</title>
<path fill="none" stroke="black" d="M193,-901.36C193,-889 193,-874.99 193,-863"/>
<polygon fill="black" stroke="black" points="196.5,-863.33 193,-853.33 189.5,-863.33 196.5,-863.33"/>
<text text-anchor="middle" x="211" y="-872.38" font-family="Times New Roman,serif" font-size="12.00">56482</text>
</g>
<!-- Addpenalty -->
<g id="node3" class="node">
<title>Addpenalty</title>
<polygon fill="#ffffff" stroke="black" points="1103.5,-851.54 988.5,-851.54 988.5,-815.54 1103.5,-815.54 1103.5,-851.54"/>
<text text-anchor="middle" x="1046" y="-829.26" font-family="Times New Roman,serif" font-size="12.00">Add penalty (56482)</text>
</g>
<!-- SendforCreditCollection -->
<g id="node4" class="node">
<title>SendforCreditCollection</title>
<polygon fill="#ffffff" stroke="black" points="1060.5,-161.54 879.5,-161.54 879.5,-125.54 1060.5,-125.54 1060.5,-161.54"/>
<text text-anchor="middle" x="970" y="-139.26" font-family="Times New Roman,serif" font-size="12.00">Send for Credit Collection (56482)</text>
</g>
<!-- Addpenalty&#45;&gt;SendforCreditCollection -->
<g id="edge1" class="edge">
<title>Addpenalty&#45;&gt;SendforCreditCollection</title>
<path fill="none" stroke="black" d="M1103.6,-833.48C1223.7,-833.9 1490,-826.06 1490,-748.29 1490,-748.29 1490,-748.29 1490,-358.16 1490,-204.51 1343.3,-215.99 1194,-179.54 1155.1,-170.03 1111.7,-162.56 1073.6,-156.99"/>
<polygon fill="black" stroke="black" points="1072.79,-153.34 1062.4,-155.39 1071.8,-160.27 1072.79,-153.34"/>
<text text-anchor="middle" x="1505" y="-484.26" font-family="Times New Roman,serif" font-size="12.00">56482</text>
</g>
<!-- SendforCreditCollection&#45;&gt;@@endnode -->
<g id="edge5" class="edge">
<title>SendforCreditCollection&#45;&gt;@@endnode</title>
<path fill="none" stroke="black" d="M936.41,-125.25C902.43,-107.76 849.82,-80.69 813.31,-61.9"/>
<polygon fill="black" stroke="black" points="815.3,-58.99 804.81,-57.53 812.1,-65.21 815.3,-58.99"/>
<text text-anchor="middle" x="915.3" y="-96.14" font-family="Times New Roman,serif" font-size="12.00">56482</text>
</g>
<!-- SendFine -->
<g id="node5" class="node">
<title>SendFine</title>
<polygon fill="#ffffff" stroke="black" points="339.25,-592.79 228.75,-592.79 228.75,-556.79 339.25,-556.79 339.25,-592.79"/>
<text text-anchor="middle" x="284" y="-570.51" font-family="Times New Roman,serif" font-size="12.00">Send Fine (56482)</text>
</g>
<!-- InsertFineNotification -->
<g id="node7" class="node">
<title>InsertFineNotification</title>
<polygon fill="#ffffff" stroke="black" points="553,-247.79 387,-247.79 387,-211.79 553,-211.79 553,-247.79"/>
<text text-anchor="middle" x="470" y="-225.51" font-family="Times New Roman,serif" font-size="12.00">Insert Fine Notification (56482)</text>
</g>
<!-- SendFine&#45;&gt;InsertFineNotification -->
<g id="edge4" class="edge">
<title>SendFine&#45;&gt;InsertFineNotification</title>
<path fill="none" stroke="black" d="M272.81,-556.34C249.17,-517.08 199.46,-419.93 239,-352.04 269.01,-300.51 329.24,-269.91 380.67,-252.35"/>
<polygon fill="black" stroke="black" points="383.34,-255.16 391.76,-248.73 381.17,-248.51 383.34,-255.16"/>
<text text-anchor="middle" x="241.82" y="-398.01" font-family="Times New Roman,serif" font-size="12.00">56482</text>
</g>
<!-- CreateFine&#45;&gt;SendFine -->
<g id="edge2" class="edge">
<title>CreateFine&#45;&gt;SendFine</title>
<path fill="none" stroke="black" d="M197.92,-815.29C208.85,-777.62 236.59,-685.39 267,-610.79 267.71,-609.04 268.47,-607.26 269.26,-605.47"/>
<polygon fill="black" stroke="black" points="273.37,-604.94 274.43,-594.4 267.03,-601.98 273.37,-604.94"/>
<text text-anchor="middle" x="252.5" y="-699.88" font-family="Times New Roman,serif" font-size="12.00">56482</text>
</g>
<!-- InsertFineNotification&#45;&gt;Addpenalty -->
<g id="edge3" class="edge">
<title>InsertFineNotification&#45;&gt;Addpenalty</title>
<path fill="none" stroke="black" d="M386.85,-239.22C296.66,-249.65 159.7,-269.56 116,-298.04 88.48,-315.97 73,-325.31 73,-358.16 73,-532.66 73,-532.66 73,-532.66 73,-599.25 61.13,-628.94 105,-679.04 206.83,-795.34 280.57,-766.48 432,-797.54 533.96,-818.45 836.73,-827.81 975.32,-831.08"/>
<polygon fill="black" stroke="black" points="976.61,-834.61 986.69,-831.34 976.77,-827.61 976.61,-834.61"/>
<text text-anchor="middle" x="88" y="-527.38" font-family="Times New Roman,serif" font-size="12.00">56482</text>
</g>
<!-- left_bottom_anchor -->
<!-- right_top_anchor -->
</g>
</svg>
