<?xml version="1.0" encoding="UTF-8" standalone="no"?>
<!DOCTYPE svg PUBLIC "-//W3C//DTD SVG 1.1//EN"
 "http://www.w3.org/Graphics/SVG/1.1/DTD/svg11.dtd">
<!-- Generated by graphviz version 12.1.2 (20240928.0832)
 -->
<!-- Pages: 1 -->
<svg width="1550pt" height="975pt"
 viewBox="0.00 0.00 1549.90 975.19" xmlns="http://www.w3.org/2000/svg" xmlns:xlink="http://www.w3.org/1999/xlink">
<g id="graph0" class="graph" transform="scale(1 1) rotate(0) translate(4 971.19)">
<polygon fill="white" stroke="none" points="-4,4 -4,-971.19 1545.9,-971.19 1545.9,4 -4,4"/>
<!-- @@endnode -->
<g id="node1" class="node">
<title>@@endnode</title>
<ellipse fill="#ffffff" stroke="black" cx="772" cy="-39.64" rx="35.64" ry="35.64"/>
<ellipse fill="none" stroke="black" cx="772" cy="-39.64" rx="39.64" ry="39.64"/>
<text text-anchor="start" x="762.25" y="-27.62" font-family="Times New Roman,serif" font-size="32.00">■</text>
</g>
<!-- @@startnode -->
<g id="node2" class="node">
<title>@@startnode</title>
<ellipse fill="#ffffff" stroke="black" cx="193" cy="-934.49" rx="32.7" ry="32.7"/>
<text text-anchor="start" x="182.88" y="-921.31" font-family="Times New Roman,serif" font-size="34.00">●</text>
</g>
<!-- CreateFine -->
<g id="node12" class="node">
<title>CreateFine</title>
<polygon fill="#ffffff" stroke="black" points="251.63,-851.54 134.37,-851.54 134.37,-815.54 251.63,-815.54 251.63,-851.54"/>
<text text-anchor="middle" x="193" y="-829.26" font-family="Times New Roman,serif" font-size="12.00">Create Fine (105624)</text>
</g>
<!-- @@startnode&#45;&gt;CreateFine -->
<g id="edge18" class="edge">
<title>@@startnode&#45;&gt;CreateFine</title>
<path fill="none" stroke="black" d="M193,-901.36C193,-889 193,-874.99 193,-863"/>
<polygon fill="black" stroke="black" points="196.5,-863.33 193,-853.33 189.5,-863.33 196.5,-863.33"/>
<text text-anchor="middle" x="211" y="-872.38" font-family="Times New Roman,serif" font-size="12.00">105624</text>
</g>
<!-- Addpenalty -->
<g id="node3" class="node">
<title>Addpenalty</title>
<polygon fill="#ffffff" stroke="black" points="1103.5,-851.54 988.5,-851.54 988.5,-815.54 1103.5,-815.54 1103.5,-851.54"/>
<text text-anchor="middle" x="1046" y="-829.26" font-family="Times New Roman,serif" font-size="12.00">Add penalty (59253)</text>
</g>
<!-- Payment -->
<g id="node7" class="node">
<title>Payment</title>
<polygon fill="#ffffff" stroke="black" points="612.88,-334.04 515.12,-334.04 515.12,-298.04 612.88,-298.04 612.88,-334.04"/>
<text text-anchor="middle" x="564" y="-311.76" font-family="Times New Roman,serif" font-size="12.00">Payment (46645)</text>
</g>
<!-- Addpenalty&#45;&gt;Payment -->
<g id="edge1" class="edge">
<title>Addpenalty&#45;&gt;Payment</title>
<path fill="none" stroke="black" d="M1076.5,-815.15C1083.6,-810.13 1090.6,-804.18 1096,-797.54 1105.9,-785.43 1105.3,-780.19 1110,-765.29 1135.8,-683.17 1238.8,-447.16 1180,-384.29 1159.6,-362.49 940.77,-374.22 912,-366.29 898.54,-362.58 897.38,-356.03 884,-352.04 796.53,-325.95 690.41,-318.9 625.05,-317.22"/>
<polygon fill="black" stroke="black" points="624.92,-313.72 614.84,-316.99 624.76,-320.71 624.92,-313.72"/>
<text text-anchor="middle" x="1194.3" y="-570.51" font-family="Times New Roman,serif" font-size="12.00">135</text>
</g>
<!-- SendAppealtoPrefecture -->
<g id="node9" class="node">
<title>SendAppealtoPrefecture</title>
<polygon fill="#ffffff" stroke="black" points="886.12,-506.54 711.88,-506.54 711.88,-470.54 886.12,-470.54 886.12,-506.54"/>
<text text-anchor="middle" x="799" y="-484.26" font-family="Times New Roman,serif" font-size="12.00">Send Appeal to Prefecture (2636)</text>
</g>
<!-- Addpenalty&#45;&gt;SendAppealtoPrefecture -->
<g id="edge2" class="edge">
<title>Addpenalty&#45;&gt;SendAppealtoPrefecture</title>
<path fill="none" stroke="black" d="M1028.7,-815.15C1023.52,-809.65 1017.89,-803.47 1013,-797.54 989.25,-768.72 990.13,-755.96 964,-729.29 937.96,-702.69 920.68,-707.75 897,-679.04 848.44,-620.15 859.7,-590.9 822,-524.54 820.47,-521.84 818.81,-519.08 817.11,-516.34"/>
<polygon fill="black" stroke="black" points="820.09,-514.5 811.74,-507.98 814.2,-518.29 820.09,-514.5"/>
<text text-anchor="middle" x="909" y="-656.76" font-family="Times New Roman,serif" font-size="12.00">2636</text>
</g>
<!-- SendforCreditCollection -->
<g id="node10" class="node">
<title>SendforCreditCollection</title>
<polygon fill="#ffffff" stroke="black" points="1060.5,-161.54 879.5,-161.54 879.5,-125.54 1060.5,-125.54 1060.5,-161.54"/>
<text text-anchor="middle" x="970" y="-139.26" font-family="Times New Roman,serif" font-size="12.00">Send for Credit Collection (56482)</text>
</g>
<!-- Addpenalty&#45;&gt;SendforCreditCollection -->
<g id="edge3" class="edge">
<title>Addpenalty&#45;&gt;SendforCreditCollection</title>
<path fill="none" stroke="black" d="M1103.6,-833.48C1223.7,-833.9 1490,-826.06 1490,-748.29 1490,-748.29 1490,-748.29 1490,-358.16 1490,-204.51 1343.3,-215.99 1194,-179.54 1155.1,-170.03 1111.7,-162.56 1073.6,-156.99"/>
<polygon fill="black" stroke="black" points="1072.79,-153.34 1062.4,-155.39 1071.8,-160.27 1072.79,-153.34"/>
<text text-anchor="middle" x="1505" y="-484.26" font-family="Times New Roman,serif" font-size="12.00">56482</text>
</g>
<!-- AppealtoJudge -->
<g id="node4" class="node">
<title>AppealtoJudge</title>
<polygon fill="#ffffff" stroke="black" points="805.88,-765.29 684.12,-765.29 684.12,-729.29 805.88,-729.29 805.88,-765.29"/>
<text text-anchor="middle" x="745" y="-743.01" font-family="Times New Roman,serif" font-size="12.00">Appeal to Judge (135)</text>
</g>
<!-- AppealtoJudge&#45;&gt;Addpenalty -->
<g id="edge4" class="edge">
<title>AppealtoJudge&#45;&gt;Addpenalty</title>
<path fill="none" stroke="black" d="M776.61,-765.6C797.25,-776.23 825.07,-789.34 851,-797.54 891.87,-810.46 939.15,-819.09 976.92,-824.55"/>
<polygon fill="black" stroke="black" points="976.43,-828.02 986.82,-825.94 977.4,-821.08 976.43,-828.02"/>
<text text-anchor="middle" x="860" y="-786.13" font-family="Times New Roman,serif" font-size="12.00">135</text>
</g>
<!-- InsertDateAppealtoPrefecture -->
<g id="node5" class="node">
<title>InsertDateAppealtoPrefecture</title>
<polygon fill="#ffffff" stroke="black" points="758,-679.04 556,-679.04 556,-643.04 758,-643.04 758,-679.04"/>
<text text-anchor="middle" x="657" y="-656.76" font-family="Times New Roman,serif" font-size="12.00">Insert Date Appeal to Prefecture (2636)</text>
</g>
<!-- InsertDateAppealtoPrefecture&#45;&gt;Addpenalty -->
<g id="edge7" class="edge">
<title>InsertDateAppealtoPrefecture&#45;&gt;Addpenalty</title>
<path fill="none" stroke="black" d="M748.12,-679.51C792.51,-690.19 845.72,-706.3 890,-729.29 933,-751.61 934.14,-771.5 975,-797.54 981.77,-801.85 989.16,-806.02 996.52,-809.89"/>
<polygon fill="black" stroke="black" points="994.99,-813.04 1005.49,-814.44 998.16,-806.8 994.99,-813.04"/>
<text text-anchor="middle" x="948.17" y="-743.01" font-family="Times New Roman,serif" font-size="12.00">2636</text>
</g>
<!-- NotifyResultAppealtoOffender -->
<g id="node6" class="node">
<title>NotifyResultAppealtoOffender</title>
<polygon fill="#ffffff" stroke="black" points="1143.38,-247.79 940.62,-247.79 940.62,-211.79 1143.38,-211.79 1143.38,-247.79"/>
<text text-anchor="middle" x="1042" y="-225.51" font-family="Times New Roman,serif" font-size="12.00">Notify Result Appeal to Offender (139)</text>
</g>
<!-- NotifyResultAppealtoOffender&#45;&gt;Payment -->
<g id="edge11" class="edge">
<title>NotifyResultAppealtoOffender&#45;&gt;Payment</title>
<path fill="none" stroke="black" d="M940.29,-236.85C898.09,-241.67 849.22,-250.32 807,-265.79 795.71,-269.92 795.27,-275.84 784,-280.04 732.15,-299.33 669.55,-307.99 624.41,-311.88"/>
<polygon fill="black" stroke="black" points="624.24,-308.38 614.55,-312.67 624.8,-315.36 624.24,-308.38"/>
<text text-anchor="middle" x="816" y="-268.63" font-family="Times New Roman,serif" font-size="12.00">139</text>
</g>
<!-- Payment&#45;&gt;@@endnode -->
<g id="edge12" class="edge">
<title>Payment&#45;&gt;@@endnode</title>
<path fill="none" stroke="black" d="M577.01,-297.87C610.19,-254.1 698.53,-137.56 744.04,-77.53"/>
<polygon fill="black" stroke="black" points="746.79,-79.69 750.05,-69.6 741.22,-75.46 746.79,-79.69"/>
<text text-anchor="middle" x="680.6" y="-182.38" font-family="Times New Roman,serif" font-size="12.00">46645</text>
</g>
<!-- ReceiveResultAppealfromPrefecture -->
<g id="node8" class="node">
<title>ReceiveResultAppealfromPrefecture</title>
<polygon fill="#ffffff" stroke="black" points="1170.5,-420.29 941.5,-420.29 941.5,-384.29 1170.5,-384.29 1170.5,-420.29"/>
<text text-anchor="middle" x="1056" y="-398.01" font-family="Times New Roman,serif" font-size="12.00">Receive Result Appeal from Prefecture (139)</text>
</g>
<!-- ReceiveResultAppealfromPrefecture&#45;&gt;NotifyResultAppealtoOffender -->
<g id="edge13" class="edge">
<title>ReceiveResultAppealfromPrefecture&#45;&gt;NotifyResultAppealtoOffender</title>
<path fill="none" stroke="black" d="M1062.5,-384.09C1064.4,-378.49 1066.1,-372.2 1067,-366.29 1071.4,-337.78 1074.3,-320.71 1059,-265.79 1058.3,-263.35 1057.5,-260.89 1056.5,-258.45"/>
<polygon fill="black" stroke="black" points="1059.77,-257.2 1052.51,-249.48 1053.38,-260.04 1059.77,-257.2"/>
<text text-anchor="middle" x="1079.5" y="-311.76" font-family="Times New Roman,serif" font-size="12.00">139</text>
</g>
<!-- SendAppealtoPrefecture&#45;&gt;@@endnode -->
<g id="edge15" class="edge">
<title>SendAppealtoPrefecture&#45;&gt;@@endnode</title>
<path fill="none" stroke="black" d="M795.21,-470.29C790.06,-446.79 780.64,-403.4 773,-366.29 765.13,-328.02 759.8,-318.92 756,-280.04 755.38,-273.73 754.99,-272.04 756,-265.79 757.35,-257.46 760.45,-256.07 762,-247.79 772.23,-193.12 773.76,-129 773.36,-86.74"/>
<polygon fill="black" stroke="black" points="776.86,-86.89 773.22,-76.94 769.86,-86.99 776.86,-86.89"/>
<text text-anchor="middle" x="768" y="-268.63" font-family="Times New Roman,serif" font-size="12.00">2497</text>
</g>
<!-- SendAppealtoPrefecture&#45;&gt;ReceiveResultAppealfromPrefecture -->
<g id="edge14" class="edge">
<title>SendAppealtoPrefecture&#45;&gt;ReceiveResultAppealfromPrefecture</title>
<path fill="none" stroke="black" d="M847.79,-470.22C860.22,-465.12 873.36,-459.13 885,-452.54 894.19,-447.34 894.43,-442.73 904,-438.29 916.21,-432.61 929.41,-427.83 942.75,-423.79"/>
<polygon fill="black" stroke="black" points="943.37,-427.25 952.02,-421.13 941.44,-420.53 943.37,-427.25"/>
<text text-anchor="middle" x="913" y="-441.13" font-family="Times New Roman,serif" font-size="12.00">139</text>
</g>
<!-- SendforCreditCollection&#45;&gt;@@endnode -->
<g id="edge17" class="edge">
<title>SendforCreditCollection&#45;&gt;@@endnode</title>
<path fill="none" stroke="black" d="M936.41,-125.25C902.43,-107.76 849.82,-80.69 813.31,-61.9"/>
<polygon fill="black" stroke="black" points="815.3,-58.99 804.81,-57.53 812.1,-65.21 815.3,-58.99"/>
<text text-anchor="middle" x="915.3" y="-96.14" font-family="Times New Roman,serif" font-size="12.00">56482</text>
</g>
<!-- SendFine -->
<g id="node11" class="node">
<title>SendFine</title>
<polygon fill="#ffffff" stroke="black" points="339.25,-592.79 228.75,-592.79 228.75,-556.79 339.25,-556.79 339.25,-592.79"/>
<text text-anchor="middle" x="284" y="-570.51" font-family="Times New Roman,serif" font-size="12.00">Send Fine (59253)</text>
</g>
<!-- InsertFineNotification -->
<g id="node13" class="node">
<title>InsertFineNotification</title>
<polygon fill="#ffffff" stroke="black" points="553,-247.79 387,-247.79 387,-211.79 553,-211.79 553,-247.79"/>
<text text-anchor="middle" x="470" y="-225.51" font-family="Times New Roman,serif" font-size="12.00">Insert Fine Notification (59253)</text>
</g>
<!-- SendFine&#45;&gt;InsertFineNotification -->
<g id="edge16" class="edge">
<title>SendFine&#45;&gt;InsertFineNotification</title>
<path fill="none" stroke="black" d="M272.81,-556.34C249.17,-517.08 199.46,-419.93 239,-352.04 269.01,-300.51 329.24,-269.91 380.67,-252.35"/>
<polygon fill="black" stroke="black" points="383.34,-255.16 391.76,-248.73 381.17,-248.51 383.34,-255.16"/>
<text text-anchor="middle" x="241.82" y="-398.01" font-family="Times New Roman,serif" font-size="12.00">59253</text>
</g>
<!-- CreateFine&#45;&gt;Payment -->
<g id="edge5" class="edge">
<title>CreateFine&#45;&gt;Payment</title>
<path fill="none" stroke="black" d="M164.18,-815.29C143.4,-800.44 119,-776.9 119,-748.29 119,-748.29 119,-748.29 119,-573.79 119,-565.87 291.1,-355.91 298,-352.04 331.92,-333.01 434.77,-323.91 502.19,-319.89"/>
<polygon fill="black" stroke="black" points="503.46,-323.32 513.24,-319.26 503.05,-316.33 503.46,-323.32"/>
<text text-anchor="middle" x="134" y="-570.51" font-family="Times New Roman,serif" font-size="12.00">46371</text>
</g>
<!-- CreateFine&#45;&gt;SendFine -->
<g id="edge6" class="edge">
<title>CreateFine&#45;&gt;SendFine</title>
<path fill="none" stroke="black" d="M197.92,-815.29C208.85,-777.62 236.59,-685.39 267,-610.79 267.71,-609.04 268.47,-607.26 269.26,-605.47"/>
<polygon fill="black" stroke="black" points="273.37,-604.94 274.43,-594.4 267.03,-601.98 273.37,-604.94"/>
<text text-anchor="middle" x="252.5" y="-699.88" font-family="Times New Roman,serif" font-size="12.00">59253</text>
</g>
<!-- InsertFineNotification&#45;&gt;Addpenalty -->
<g id="edge8" class="edge">
<title>InsertFineNotification&#45;&gt;Addpenalty</title>
<path fill="none" stroke="black" d="M386.85,-239.22C296.66,-249.65 159.7,-269.56 116,-298.04 88.48,-315.97 73,-325.31 73,-358.16 73,-532.66 73,-532.66 73,-532.66 73,-599.25 61.13,-628.94 105,-679.04 206.83,-795.34 280.57,-766.48 432,-797.54 533.96,-818.45 836.73,-827.81 975.32,-831.08"/>
<polygon fill="black" stroke="black" points="976.61,-834.61 986.69,-831.34 976.77,-827.61 976.61,-834.61"/>
<text text-anchor="middle" x="88" y="-527.38" font-family="Times New Roman,serif" font-size="12.00">56482</text>
</g>
<!-- InsertFineNotification&#45;&gt;AppealtoJudge -->
<g id="edge9" class="edge">
<title>InsertFineNotification&#45;&gt;AppealtoJudge</title>
<path fill="none" stroke="black" d="M386.64,-240.17C341.48,-248.89 287.09,-265.68 248,-298.04 166.47,-365.51 101.24,-405.59 133,-506.54 149.66,-559.48 227.78,-683.82 276,-711.29 280.26,-713.71 541.82,-732.18 672.43,-741.27"/>
<polygon fill="black" stroke="black" points="672.16,-744.76 682.38,-741.96 672.64,-737.78 672.16,-744.76"/>
<text text-anchor="middle" x="142" y="-484.26" font-family="Times New Roman,serif" font-size="12.00">135</text>
</g>
<!-- InsertFineNotification&#45;&gt;InsertDateAppealtoPrefecture -->
<g id="edge10" class="edge">
<title>InsertFineNotification&#45;&gt;InsertDateAppealtoPrefecture</title>
<path fill="none" stroke="black" d="M466.74,-248.19C458.43,-297.46 440.79,-440.64 495,-538.79 520.02,-584.09 569.9,-617.41 607.74,-637.53"/>
<polygon fill="black" stroke="black" points="605.73,-640.43 616.23,-641.92 608.95,-634.21 605.73,-640.43"/>
<text text-anchor="middle" x="476.94" y="-441.13" font-family="Times New Roman,serif" font-size="12.00">2636</text>
</g>
<!-- left_bottom_anchor -->
<!-- right_top_anchor -->
</g>
</svg>
